<svg width="8" height="9" viewBox="0 0 8 9" fill="none" xmlns="http://www.w3.org/2000/svg">
<path d="M0.0900744 5.06312C0.147824 5.00933 0.226107 4.97912 0.307727 4.97912C0.389346 4.97912 0.467629 5.00933 0.525379 5.06312L3.69571 8.01932L3.69571 0.287243C3.69571 0.211061 3.72816 0.138 3.78592 0.0841318C3.84368 0.0302635 3.92202 5.97166e-07 4.00371 6.04307e-07C4.08539 6.11448e-07 4.16373 0.0302636 4.22149 0.0841319C4.27925 0.138 4.3117 0.211061 4.3117 0.287243L4.3117 8.01932L7.48203 5.06312C7.54042 5.01238 7.61764 4.98476 7.69744 4.98607C7.77723 4.98739 7.85336 5.01753 7.90979 5.07016C7.96622 5.12279 7.99854 5.19379 7.99995 5.2682C8.00136 5.34262 7.97174 5.41464 7.91734 5.46909L4.22136 8.91599C4.16361 8.96979 4.08533 9 4.00371 9C3.92209 9 3.8438 8.96979 3.78605 8.91599L0.0900744 5.46909C0.0323962 5.41523 -6.33901e-07 5.34222 -6.27247e-07 5.2661C-6.20592e-07 5.18999 0.0323962 5.11698 0.0900744 5.06312Z" fill="white" fill-opacity="0.6"/>
</svg>
